<svg width="23" height="15" viewBox="0 0 23 15" fill="none" xmlns="http://www.w3.org/2000/svg">
<path d="M22.9997 7.72624C22.9997 7.72195 22.9994 7.71766 22.9994 7.71337C22.9931 7.42578 22.7616 7.19663 22.4699 7.19663H22.3309L20.1838 3.05477C20.0932 2.87988 19.9125 2.77098 19.7131 2.77093L16.0474 2.77017L16.1872 1.66412C16.2271 1.22211 16.0902 0.804767 15.8015 0.488878C15.5134 0.173641 15.1111 0 14.6687 0H3.29168C3.00562 0 2.76262 0.22084 2.73535 0.505553L2.62131 1.41683H9.10337C9.52427 1.41683 9.85654 1.75727 9.84555 2.17722C9.8345 2.59718 9.48437 2.93762 9.06347 2.93762H6.90135C6.90173 2.9387 6.90211 2.93979 6.90249 2.94082H0.553252C0.255599 2.94082 0.00797225 3.18154 0.00018798 3.47853C-0.00759629 3.77551 0.227347 4.01623 0.525 4.01623H8.93071C9.3209 4.0762 9.6124 4.41289 9.60168 4.82051C9.58992 5.26817 9.21851 5.63114 8.77061 5.63489H2.97552C2.67487 5.63489 2.4248 5.87806 2.4169 6.17803C2.40901 6.478 2.64635 6.72117 2.947 6.72117H8.67382C9.06973 6.77619 9.36706 7.11559 9.35628 7.52718C9.34447 7.97712 8.9693 8.34189 8.51836 8.34189H1.94838V8.34249H1.39635C1.0957 8.34249 0.845625 8.58565 0.837732 8.88563C0.829839 9.1856 1.06712 9.42876 1.36782 9.42876H1.84424L1.65791 11.3742C1.61796 11.8161 1.75491 12.2335 2.04364 12.5494C2.33171 12.8647 2.73405 13.0382 3.17644 13.0382H3.58743C3.78329 14.1557 4.75224 15 5.93746 15C7.12269 15 8.13595 14.1557 8.39032 13.0383H13.5192C13.9339 13.0383 14.3265 12.8801 14.6343 12.6211C14.9159 12.8907 15.2891 13.0383 15.6966 13.0383H15.781C15.9768 14.1557 16.9457 15 18.131 15C19.3162 15 20.3295 14.1557 20.5839 13.0383H20.9224C21.8043 13.0383 22.5864 12.3229 22.6659 11.4436L22.9976 7.77714C22.9981 7.77219 22.9979 7.76731 22.9982 7.76231C22.9987 7.75476 22.9998 7.74737 23 7.73977C23.0001 7.73521 22.9997 7.73081 22.9997 7.72624ZM5.96599 13.9137C5.21559 13.9137 4.62105 13.3047 4.6407 12.5559C4.66035 11.8072 5.28685 11.198 6.03724 11.198C6.78764 11.198 7.38213 11.8072 7.36247 12.5559C7.34282 13.3047 6.71638 13.9137 5.96599 13.9137ZM18.1595 13.9137C17.4091 13.9137 16.8146 13.3047 16.8342 12.5559C16.8539 11.8072 17.4804 11.198 18.2308 11.198C18.9812 11.198 19.5757 11.8072 19.556 12.5559C19.5364 13.3047 18.9099 13.9137 18.1595 13.9137ZM21.5813 11.3742C21.553 11.6874 21.2644 11.952 20.951 11.952H20.5848C20.3423 10.8955 19.4011 10.1118 18.2593 10.1118C17.1174 10.1118 16.1351 10.8955 15.8372 11.952H15.7251C15.5867 11.952 15.4633 11.9003 15.3773 11.8062C15.2908 11.7116 15.2501 11.5828 15.2627 11.4436L15.9491 3.85644L17.5255 3.85677L17.2756 6.61873C17.2356 7.06068 17.3725 7.47803 17.6612 7.79392C17.9492 8.10926 18.3517 8.28296 18.7941 8.28296H21.8609L21.5813 11.3742Z" fill="#BB0C56"/>
</svg>
