<svg width="6" height="5" viewBox="0 0 6 5" fill="none" xmlns="http://www.w3.org/2000/svg">
<path d="M0.289469 2.09909H5.75871C5.89198 2.09909 6 2.19505 6 2.31328C6 2.43152 5.89199 2.52748 5.75871 2.52748H0.289469C0.156201 2.52748 0.0481763 2.43159 0.0481763 2.31328C0.0481763 2.19497 0.156189 2.09909 0.289469 2.09909Z" fill="black"/>
<path d="M0.0707238 2.16179L2.43528 0.0627053C2.52955 -0.0209018 2.6822 -0.0209018 2.77647 0.0627053C2.87073 0.146385 2.87073 0.282037 2.77647 0.365644L0.5825 2.31328L2.77647 4.26093C2.87073 4.34454 2.87073 4.48019 2.77647 4.5638C2.72933 4.60564 2.66765 4.62656 2.60588 4.62656C2.54411 4.62656 2.48242 4.60564 2.43528 4.5638L0.0707238 2.46473C-0.0235434 2.38105 -0.0235434 2.24538 0.0707238 2.16179Z" fill="black"/>
</svg>
