<svg width="6" height="5" viewBox="0 0 6 5" fill="none" xmlns="http://www.w3.org/2000/svg">
<path d="M5.71053 2.31487H0.241292C0.108025 2.31487 0 2.41082 0 2.52906C0 2.6473 0.108013 2.74325 0.241292 2.74325H5.71053C5.8438 2.74325 5.95182 2.64737 5.95182 2.52906C5.95182 2.41075 5.84381 2.31487 5.71053 2.31487Z" fill="black"/>
<path d="M5.92934 2.37756L3.56478 0.27848C3.47051 0.194873 3.31786 0.194873 3.22359 0.27848C3.12933 0.36216 3.12933 0.497812 3.22359 0.581419L5.41756 2.52906L3.22359 4.4767C3.12933 4.56031 3.12933 4.69596 3.22359 4.77957C3.27073 4.82141 3.33242 4.84233 3.39419 4.84233C3.45596 4.84233 3.51764 4.82141 3.56478 4.77957L5.92934 2.6805C6.0236 2.59682 6.0236 2.46116 5.92934 2.37756Z" fill="black"/>
</svg>
